<?xml version="1.0" encoding="utf-8"?>
<!-- Generator: Adobe Illustrator 19.2.1, SVG Export Plug-In . SVG Version: 6.00 Build 0)  -->
<svg version="1.1" id="Layer_1" xmlns="http://www.w3.org/2000/svg" xmlns:xlink="http://www.w3.org/1999/xlink" x="0px" y="0px"
	 viewBox="0 0 45.6 36" style="enable-background:new 0 0 45.6 36;" xml:space="preserve">
<style type="text/css">
	.st0{fill:#000000;}
</style>
<path id="squarespace-logo-symbol" class="st0" d="M38.4,16.9c-0.6-0.6-1.6-0.6-2.2,0L21.7,31.4c-2.1,2.1-5.4,2.1-7.4,0
	c-0.6-0.6-1.6-0.6-2.2,0s-0.6,1.6,0,2.2c3.3,3.3,8.6,3.3,11.8,0l14.5-14.5C39,18.5,39,17.5,38.4,16.9z M43.2,12.1
	c-3.3-3.3-8.6-3.3-11.8,0L16.9,26.5c-0.6,0.6-0.6,1.6,0,2.2c0.6,0.6,1.6,0.6,2.2,0l14.5-14.5c2.1-2.1,5.4-2.1,7.4,0
	c2.1,2.1,2.1,5.4,0,7.4L29.4,33.4c-0.6,0.6-0.6,1.6,0,2.2s1.6,0.6,2.2,0l11.6-11.6C46.5,20.7,46.5,15.3,43.2,12.1z M33.6,2.4
	c-3.3-3.3-8.6-3.3-11.8,0L7.3,16.9c-0.6,0.6-0.6,1.6,0,2.2s1.6,0.6,2.2,0L23.9,4.6c2.1-2.1,5.4-2.1,7.4,0c0.6,0.6,1.6,0.6,2.2,0
	S34.2,3.1,33.6,2.4z M28.7,7.3c-0.6-0.6-1.6-0.6-2.2,0L12.1,21.7c-2.1,2.1-5.4,2.1-7.4,0c-2.1-2.1-2.1-5.4,0-7.4L16.3,2.6
	c0.6-0.6,0.6-1.6,0-2.2c-0.6-0.6-1.6-0.6-2.2,0L2.4,12.1c-3.3,3.3-3.3,8.6,0,11.8c3.3,3.3,8.6,3.3,11.8,0L28.7,9.5
	C29.3,8.9,29.3,7.9,28.7,7.3z"/>
</svg>
